<?xml version="1.0" encoding="utf-8"?>
<!-- Generator: Adobe Illustrator 16.0.0, SVG Export Plug-In . SVG Version: 6.00 Build 0)  -->
<!DOCTYPE svg PUBLIC "-//W3C//DTD SVG 1.1//EN" "http://www.w3.org/Graphics/SVG/1.1/DTD/svg11.dtd">
<svg version="1.1" id="Layer_1" xmlns="http://www.w3.org/2000/svg" xmlns:xlink="http://www.w3.org/1999/xlink" x="0px" y="0px"
	 width="293.184px" height="293.184px" viewBox="0 0 293.184 293.184" enable-background="new 0 0 293.184 293.184"
	 xml:space="preserve">
<g>
	
		<image overflow="visible" opacity="0.5" enable-background="new    " width="271" height="271" xlink:href="540507FD.png"  transform="matrix(0.9963 0 0 0.9963 17.7244 18.2581)">
	</image>
	<g>
		<circle fill="#FFFFFF" cx="145.776" cy="145.776" r="119.5"/>
	</g>
</g>
<g>
	<path fill="none" stroke="#5A4D9B" stroke-width="4" stroke-miterlimit="10" d="M206.186,95.144H93.176
		c-4.076,0-7.378,3.302-7.378,7.383v78.405c0,4.078,3.302,7.379,7.378,7.379h76.783l-1.503,17.431l20.435-17.431h17.294
		c4.076,0,7.381-3.301,7.381-7.379v-78.405C213.567,98.446,210.262,95.144,206.186,95.144z"/>
	<path fill="none" stroke="#5A4D9B" stroke-width="4" stroke-miterlimit="10" d="M172.95,139.716c0-0.692-0.036-1.373-0.094-2.042
		l4.555-1.197l-2.043-7.801l-4.646,1.211c-0.978-2.038-2.252-3.913-3.768-5.56l2.979-3.866l-6.387-4.923l-3.02,3.906
		c-1.95-0.996-4.064-1.716-6.293-2.113v-4.972h-8.069v4.972c-2.117,0.381-4.129,1.047-6.002,1.965l-2.962-3.953l-6.459,4.841
		l2.931,3.912c-1.115,1.173-2.107,2.471-2.952,3.865l-4.528-1.671l-2.791,7.575l4.446,1.638c-0.257,1.368-0.4,2.774-0.4,4.216
		c0,0.5,0.024,0.991,0.057,1.483l-4.516,1.183l2.044,7.807l4.414-1.158c0.955,2.13,2.231,4.085,3.762,5.81l-2.743,3.553l6.387,4.929
		l2.702-3.5c2.041,1.083,4.262,1.86,6.611,2.278v4.4h8.069v-4.4c2.236-0.397,4.354-1.125,6.314-2.123l2.651,3.539l6.458-4.84
		l-2.689-3.589c1.139-1.242,2.139-2.61,2.983-4.086l4.257,1.569l2.787-7.57l-4.345-1.602
		C172.844,142.199,172.95,140.97,172.95,139.716z M150.2,154.922c-8.555,0-15.493-6.938-15.493-15.495
		c0-8.557,6.938-15.491,15.493-15.491c8.559,0,15.493,6.935,15.493,15.491C165.694,147.984,158.758,154.922,150.2,154.922z"/>
	<path fill="none" stroke="#5A4D9B" stroke-width="4" stroke-miterlimit="10" d="M95.732,135.995v32.624
		c0,0,0.646,5.616,5.808,6.904h36.148"/>
</g>
</svg>
