<?xml version="1.0" encoding="utf-8"?>
<!-- Generator: Adobe Illustrator 16.0.0, SVG Export Plug-In . SVG Version: 6.00 Build 0)  -->
<!DOCTYPE svg PUBLIC "-//W3C//DTD SVG 1.1//EN" "http://www.w3.org/Graphics/SVG/1.1/DTD/svg11.dtd">
<svg version="1.1" id="Layer_1" xmlns:svg="http://www.w3.org/2000/svg"
	 xmlns="http://www.w3.org/2000/svg" xmlns:xlink="http://www.w3.org/1999/xlink" x="0px" y="0px" width="293.184px"
	 height="293.184px" viewBox="0 0 293.184 293.184" enable-background="new 0 0 293.184 293.184" xml:space="preserve">
<g id="g52">
	<g id="g40">
		
			<image overflow="visible" opacity="0.5" enable-background="new    " width="271" height="271" id="image34" xlink:href="AD100F76.png"  transform="matrix(0.9963 0 0 0.9963 19.073 18.7581)">
		</image>
		<g id="g38">
			<circle id="circle36" fill="#FFFFFF" cx="146.592" cy="146.592" r="119.5"/>
		</g>
	</g>
	<g id="layer1">
		<path id="path836" fill="#5A4D9B" d="M146.6,68.1c-6.348,0.088-11.101,5.346-10.569,11.603c-3.843,1.833-7.871,4.323-10.839,7.773
			c-0.611,0.71-1.17,1.467-1.668,2.27c-25.676,10.8-40.401,37.989-35.49,65.342c-5.126,3.066-7.381,7.718-7.765,12.814
			c-0.34,4.526,0.755,9.12,2.174,13.129c-0.254,0.21-0.501,0.434-0.738,0.672c-4.13,4.129-4.141,10.893-0.008,15.027
			c4.13,4.128,10.895,4.116,15.026-0.016c0.234-0.232,0.453-0.473,0.66-0.722c4.013,1.421,8.624,2.503,13.159,2.161
			c2.285-0.172,4.603-0.729,6.699-1.831c18.187,10.337,40.458,10.344,58.714-0.004c2.142,1.219,4.334,1.725,7.749,1.897
			c3.485,0.175,8.083-0.803,12.096-2.225c0.207,0.249,0.426,0.489,0.659,0.722c4.134,4.131,10.897,4.144,15.029,0.016
			c4.13-4.134,4.123-10.897-0.008-15.027c-0.239-0.238-0.484-0.462-0.738-0.672c1.418-4.009,2.514-8.603,2.174-13.129
			c-0.385-5.114-2.641-9.753-7.772-12.819c4.895-27.282-9.451-54.217-35.433-65.296c-0.578-0.908-1.054-1.556-1.715-2.321
			c-2.963-3.444-7.203-6.033-10.81-7.755C157.612,72.916,152.444,68.1,146.6,68.1z M137.292,83.816
			c1.812,3.286,5.309,5.527,9.308,5.527c3.996,0,7.493-2.238,9.304-5.521c3.33,1.654,6.636,3.817,8.872,6.416
			c2.583,3.002,3.856,6.352,2.623,10.946l-3.025,11.288c-0.465,1.741-2.156,2.72-3.899,2.254c-1.741-0.467-2.719-2.16-2.254-3.901
			l2.473-9.237c0.145-0.543,0.071-1.122-0.212-1.61l-1.502-2.606c-0.589-1.018-1.889-1.366-2.906-0.777
			c-1.014,0.588-1.36,1.886-0.774,2.901l1.063,1.842l-2.246,8.386c-1.056,3.944,1.316,8.048,5.258,9.105
			c3.944,1.055,8.049-1.315,9.105-5.258l3.024-11.287c0.647-2.417,0.71-4.705,0.349-6.823c21.019,10.788,32.912,33.847,29.366,57.34
			l-6.426-3.705c-3.536-2.042-8.113-0.813-10.155,2.722c-2.041,3.536-0.813,8.114,2.724,10.154l7.515,4.347l0.552,2.049
			c0.306,1.131,1.471,1.809,2.602,1.507c1.139-0.303,1.808-1.474,1.503-2.605l-0.78-2.905c-0.146-0.545-0.498-1.006-0.987-1.285
			l-8.279-4.786c-1.561-0.901-2.065-2.788-1.167-4.349c0.903-1.56,2.789-2.066,4.35-1.167l10.123,5.843
			c4.12,2.378,5.606,5.835,5.89,9.595c0.255,3.415-0.555,7.282-1.739,10.807c-3.6-1.04-7.655-0.146-10.48,2.681
			s-3.713,6.881-2.672,10.486c-3.527,1.186-7.398,2.002-10.821,1.748c-3.724-0.281-7.216-1.775-9.596-5.895l-5.843-10.126
			c-0.899-1.562-0.397-3.456,1.163-4.357c1.56-0.9,3.447-0.387,4.35,1.176l4.778,8.286c0.288,0.487,0.75,0.842,1.294,0.987
			l2.91,0.777c1.134,0.298,2.296-0.381,2.594-1.512c0.3-1.133-0.378-2.295-1.51-2.594l-2.038-0.557l-4.349-7.519
			c-2.043-3.537-6.61-4.761-10.147-2.72c-3.534,2.043-4.771,6.627-2.729,10.164l5.847,10.125c0.743,1.282,1.596,2.392,2.531,3.341
			c-16.063,8.411-35.221,8.398-51.257-0.005c0.936-0.95,1.789-2.054,2.531-3.336l5.847-10.125c2.069-3.585,0.805-8.121-2.73-10.164
			c-3.536-2.041-8.105-0.817-10.147,2.72l-4.35,7.519l-2.037,0.557c-1.131,0.298-1.81,1.461-1.51,2.594
			c0.302,1.131,1.461,1.81,2.593,1.512l2.91-0.777c0.545-0.146,1.01-0.5,1.294-0.987l4.78-8.286c0.9-1.563,2.866-2.031,4.348-1.176
			c1.561,0.901,2.034,2.848,1.164,4.357l-5.843,10.126c-2.274,3.938-5.645,5.595-9.596,5.895c-3.42,0.255-7.295-0.563-10.821-1.748
			c1.043-3.605,0.155-7.66-2.673-10.486c-2.825-2.826-6.877-3.721-10.478-2.681c-1.183-3.524-1.996-7.391-1.739-10.807
			c0.275-3.668,1.768-7.217,5.889-9.595l10.122-5.843c1.562-0.899,3.447-0.393,4.349,1.167c0.9,1.561,0.395,3.447-1.167,4.349
			l-8.278,4.786c-0.489,0.279-0.842,0.74-0.989,1.285l-0.779,2.905c-0.304,1.133,0.367,2.303,1.502,2.605
			c1.133,0.302,2.297-0.376,2.601-1.507l0.552-2.049l7.515-4.347c3.537-2.04,4.764-6.618,2.722-10.154
			c-2.042-3.535-6.618-4.763-10.154-2.722l-6.431,3.714c-3.557-23.503,8.312-46.555,29.326-57.344
			c-0.363,2.116-0.254,4.396,0.394,6.813l3.025,11.292c1.057,3.942,5.169,6.309,9.113,5.253c3.945-1.057,6.311-5.153,5.253-9.096
			l-2.241-8.391l1.05-1.834c0.586-1.014,0.245-2.312-0.769-2.901c-1.014-0.589-2.315-0.246-2.905,0.767l-1.502,2.602
			c-0.285,0.487-0.365,1.067-0.22,1.614l2.478,9.241c0.466,1.741-0.504,3.438-2.245,3.905c-1.741,0.465-3.438-0.521-3.905-2.262
			l-3.025-11.292c-1.232-4.596,0.229-8.17,2.619-10.947C130.645,87.635,133.959,85.471,137.292,83.816z M127.473,123.334
			c-3.496,0-6.382,2.892-6.382,6.385v25.48c-0.014,1.907,2.3,2.864,3.639,1.506l7.838-7.871h1.271v2.116
			c0,3.494,2.892,6.388,6.386,6.388h20.388l7.842,7.872c1.341,1.356,3.653,0.398,3.64-1.508v-25.5c0-3.496-2.892-6.367-6.387-6.367
			h-6.366v-2.117c0-3.494-2.889-6.385-6.382-6.385H127.473z M127.473,127.586h25.488c1.213,0,2.132,0.92,2.132,2.132v12.736
			c0,1.212-0.919,2.129-2.132,2.129h-21.268c-0.564,0-1.107,0.225-1.506,0.627l-4.847,4.864v-20.356
			C125.341,128.506,126.26,127.586,127.473,127.586z M131.719,133.955c-1.172,0-2.124,0.952-2.124,2.125
			c0,1.172,0.952,2.125,2.124,2.125c1.173,0,2.125-0.952,2.125-2.125C133.844,134.907,132.892,133.955,131.719,133.955z
			 M140.218,133.955c-1.173,0-2.124,0.952-2.124,2.125c0,1.172,0.951,2.125,2.124,2.125c1.173,0,2.125-0.952,2.125-2.125
			C142.343,134.907,141.391,133.955,140.218,133.955z M148.717,133.955c-1.174,0-2.125,0.952-2.125,2.125
			c0,1.172,0.951,2.125,2.125,2.125s2.124-0.952,2.124-2.125C150.841,134.907,149.891,133.955,148.717,133.955z"/>
		<path id="path43" fill="#FFFFFF" d="M140.011,148.716c3.94,0,6.085,0.006,11,0.006c0,0,1.896-0.006,4.247-0.006
			c4.024,0,4.08-0.814,4.08-1.503c0-3.398,0.009-8.488,0.009-11.783c4.165,0,5.055-0.109,5.973,0.178
			c1.288,0.403,2.657,1.541,2.657,3.61c0,1.847,0.016,3.211,0.016,4.492l-0.016,2.63c0,1.419,0.085,3.335-1.338,5.366
			c-1.46,2.087-3.055,1.902-9.355,1.902h-11.108c-4.915,0-9.086-0.028-9.086-4.943L140.011,148.716z"/>
	</g>
	<circle id="circle48" fill="#FFFFFF" cx="89.314" cy="189.033" r="7.961"/>
	<circle id="circle48_1_" fill="#FFFFFF" cx="146.592" cy="78.533" r="7.961"/>
	<circle id="circle48_2_" fill="#FFFFFF" cx="203.592" cy="189.033" r="7.961"/>
</g>
</svg>
