<?xml version="1.0" encoding="utf-8"?>
<!-- Generator: Adobe Illustrator 16.0.0, SVG Export Plug-In . SVG Version: 6.00 Build 0)  -->
<!DOCTYPE svg PUBLIC "-//W3C//DTD SVG 1.1//EN" "http://www.w3.org/Graphics/SVG/1.1/DTD/svg11.dtd">
<svg version="1.1" id="Layer_1" xmlns="http://www.w3.org/2000/svg" xmlns:xlink="http://www.w3.org/1999/xlink" x="0px" y="0px"
	 width="293.184px" height="293.184px" viewBox="0 0 293.184 293.184" enable-background="new 0 0 293.184 293.184"
	 xml:space="preserve">
<g>
	
		<image overflow="visible" opacity="0.5" enable-background="new    " width="271" height="271" xlink:href="8AAA8344.png"  transform="matrix(0.9963 0 0 0.9963 18.8787 18.2717)">
	</image>
	<g>
		<circle fill="#FFFFFF" cx="146.592" cy="146.246" r="119.5"/>
	</g>
</g>
<g>
	<path fill="#5A4D9B" d="M182.029,125.093h28.716c2.187,0,4.18,0.89,5.602,2.322c1.441,1.441,2.321,3.426,2.321,5.602v60.654
		c0,2.186-0.891,4.182-2.321,5.602c-1.442,1.442-3.427,2.321-5.602,2.321h-28.716c-2.187,0-4.181-0.89-5.602-2.321
		c-1.442-1.442-2.32-3.426-2.32-5.602v-60.665c0-2.188,0.889-4.181,2.32-5.603C177.87,125.963,179.843,125.093,182.029,125.093
		L182.029,125.093L182.029,125.093z M207.926,159.657l-13.331,2.66l2.694-3.989c-4.317-4.418-9.05-5.952-14.629-4.17
		c5.816-7.495,13.727-7.665,20.004-3.799l2.749-4.068L207.926,159.657L207.926,159.657L207.926,159.657L207.926,159.657z
		 M144.76,139.664l13.331-2.66l-2.692,3.991c4.315,4.417,9.049,5.949,14.627,4.168c-5.815,7.495-13.727,7.664-20.004,3.798
		l-2.749,4.067L144.76,139.664L144.76,139.664L144.76,139.664L144.76,139.664z M83.622,95.251h119.594
		c1.894,0,3.437,1.544,3.437,3.437v20.781h-7.302v-13.975c0-1.667-1.364-3.042-3.044-3.042H90.517l0,0
		c-1.668,0-3.042,1.363-3.042,3.042v58.468c0,1.668,1.364,3.044,3.042,3.044h76.105v14.347h-83c-1.895,0-3.438-1.544-3.438-3.436
		V98.688C80.184,96.795,81.727,95.251,83.622,95.251L83.622,95.251L83.622,95.251L83.622,95.251z M159.003,186.097
		c0.081,5.398,2.3,10.222,8.329,14.029h-47.829c4.813-3.492,8.34-7.74,8.329-14.029H159.003L159.003,186.097z M143.418,169.766
		c2.436,0,4.419,1.973,4.419,4.418c0,2.436-1.983,4.419-4.419,4.419c-2.434,0-4.417-1.973-4.417-4.419
		C139.001,171.75,140.973,169.766,143.418,169.766L143.418,169.766z M196.375,191.854c1.791,0,3.258,1.443,3.258,3.259
		c0,1.792-1.443,3.257-3.258,3.257c-1.791,0-3.258-1.442-3.258-3.257C193.117,193.321,194.561,191.854,196.375,191.854
		L196.375,191.854z M177.442,189.376h37.878v-53.476h-37.878V189.376L177.442,189.376z"/>
</g>
</svg>
