<?xml version="1.0" encoding="utf-8"?>
<!-- Generator: Adobe Illustrator 16.0.0, SVG Export Plug-In . SVG Version: 6.00 Build 0)  -->
<!DOCTYPE svg PUBLIC "-//W3C//DTD SVG 1.1//EN" "http://www.w3.org/Graphics/SVG/1.1/DTD/svg11.dtd">
<svg version="1.1" id="Layer_1" xmlns="http://www.w3.org/2000/svg" xmlns:xlink="http://www.w3.org/1999/xlink" x="0px" y="0px"
	 width="293.184px" height="293.184px" viewBox="0 0 293.184 293.184" enable-background="new 0 0 293.184 293.184"
	 xml:space="preserve">
<g>
	
		<image overflow="visible" opacity="0.5" enable-background="new    " width="271" height="271" xlink:href="905EAF66.png"  transform="matrix(0.9963 0 0 0.9963 19.0017 18.6643)">
	</image>
	<g>
		<circle fill="#FFFFFF" cx="146.592" cy="146.592" r="119.5"/>
	</g>
</g>
<g>
	
		<rect x="98.741" y="175.178" transform="matrix(-0.8454 -0.5342 0.5342 -0.8454 129.0209 406.6346)" fill="#FFFFFF" stroke="#5A4D9B" stroke-width="4" stroke-miterlimit="10" width="49.255" height="18.929"/>
	<path fill="#FFFFFF" stroke="#5A4D9B" stroke-width="4" stroke-miterlimit="10" d="M127.339,116.259c0,0-7.538,1.363-10.27,9.565
		c0,0-3.659,14.271,0.27,29.621l-6.413,10.146l35.422,22.386l6.011-9.511l7.466-1.136c0,0,5.151-0.479,8.053-5.119l16.603-26.274
		l-18.727-11.834"/>
	<g>
		<path fill="#FFFFFF" stroke="#5A4D9B" stroke-width="4" stroke-miterlimit="10" d="M189.539,143.599
			c-0.086-0.064-0.165-0.125-0.262-0.186l-61.321-38.752c-0.39-0.246-0.766-0.431-1.138-0.576
			c1.528-8.247-1.967-16.961-9.488-21.714c-7.336-4.636-16.43-4.191-23.177,0.394l16.385,10.354l-8.992,14.228L85.16,96.993
			c-1.245,8.063,2.257,16.467,9.594,21.103c7.52,4.752,16.894,4.167,23.683-0.75c0.292,0.271,0.618,0.537,1.008,0.783l61.322,38.752
			c0.056,0.036,0.108,0.056,0.162,0.089c-1.56,8.262,1.931,17.019,9.471,21.783c7.335,4.636,16.432,4.191,23.18-0.393
			l-16.387-10.355l8.993-14.231l16.388,10.355c1.244-8.062-2.262-16.466-9.597-21.101
			C205.547,138.334,196.31,138.845,189.539,143.599z"/>
	</g>
	<path fill="#FFFFFF" stroke="#5A4D9B" stroke-width="4" stroke-miterlimit="10" d="M149.852,127.791
		c-1.877,2.97-5.8,3.852-8.765,1.978l0,0c-2.968-1.875-3.857-5.798-1.979-8.768l6.354-10.055c1.875-2.969,5.801-3.851,8.771-1.975
		l0,0c2.964,1.875,3.85,5.798,1.975,8.766L149.852,127.791z"/>
	<path fill="#FFFFFF" stroke="#5A4D9B" stroke-width="4" stroke-miterlimit="10" d="M161.789,134.274
		c-1.874,2.965-5.802,3.852-8.767,1.978l0,0c-2.967-1.875-3.853-5.802-1.978-8.768l7.354-11.64c1.876-2.969,5.802-3.852,8.769-1.977
		l0,0c2.965,1.875,3.854,5.798,1.978,8.767L161.789,134.274z"/>
	<path fill="#FFFFFF" stroke="#5A4D9B" stroke-width="4" stroke-miterlimit="10" d="M173.746,139.135
		c-1.873,2.965-5.798,3.852-8.765,1.977l0,0c-2.968-1.875-3.851-5.799-1.976-8.764l4.658-7.371c1.876-2.969,5.798-3.854,8.765-1.979
		l0,0c2.968,1.875,3.853,5.797,1.977,8.767L173.746,139.135z"/>
	<path fill="#FFFFFF" stroke="#5A4D9B" stroke-width="4" stroke-miterlimit="10" d="M184.482,145.938
		c-1.875,2.967-5.8,3.853-8.765,1.979l0,0c-2.967-1.875-3.854-5.8-1.98-8.769l3.174-5.021c1.876-2.969,5.802-3.849,8.769-1.974l0,0
		c2.964,1.874,3.852,5.795,1.976,8.764L184.482,145.938z"/>
	<path fill="#FFFFFF" stroke="#5A4D9B" stroke-width="4" stroke-miterlimit="10" d="M134.133,153.192
		c12.253-14.883,1.105-27.119,1.105-27.119l15.604,9.86c8.038,2.946,13.646-5.928,13.646-5.928l-24.512-15.491l-12.637,1.745
		c0,0-7.52,2.038-10.27,9.565c0,0-3.532,13.022,0.27,29.621"/>
</g>
</svg>
