<?xml version="1.0" encoding="UTF-8" standalone="no"?>
<svg
   viewBox="0 0 21 25"
   version="1.1"
   id="svg19"
   width="21"
   height="25"
   xml:space="preserve"
   xmlns="http://www.w3.org/2000/svg"
   xmlns:svg="http://www.w3.org/2000/svg"><defs
     id="defs23"><style
       id="style462">.cls-1{fill:#3b2d82;}.cls-2{fill:#da530d;}.cls-3{fill:none;}.cls-4{fill:#bd57fd;}</style></defs><g
     id="c"
     transform="matrix(0.21920645,0,0,0.21920645,0.13277916,3.6738569)"><path
       id="d"
       class="cls-1"
       d="M 28,57.73 H 4.67 A 4.75,4.75 0 0 0 0,62.53 v 14.35 a 3.86,3.86 0 0 0 6.61,2.81 z" /><path
       id="e"
       class="cls-2"
       d="M 94.65,21.77 81.27,8 A 3.72,3.72 0 0 0 76,7.93 l -0.1,0.1 -8,8.23 a 3.24,3.24 0 0 0 2.22,5.51 z" /><path
       class="cls-3"
       d="M 59.88,25 41.35,44 H 64.62 V 27 a 2.77,2.77 0 0 0 -4.75,-2 z"
       id="path468" /><path
       class="cls-4"
       d="M 64.62,27 V 8 A 8,8 0 0 0 56.77,0 H 8.69 A 4.37,4.37 0 0 0 4.44,4.46 v 0 A 4.35,4.35 0 0 0 5.69,7.43 L 41.35,44 56.14,44.12 Z"
       id="path470" /><path
       id="f"
       class="cls-1"
       d="m 28,57.73 h 30.6 a 6.09,6.09 0 0 0 6,-6.18 v 0 V 27 a 2.76,2.76 0 0 0 -2.69,-2.84 2.8,2.8 0 0 0 -2,0.82 z" /></g></svg>
