<?xml version="1.0" encoding="UTF-8" standalone="no"?>
<svg
   viewBox="0 0 21 25"
   version="1.1"
   id="svg19"
   width="21"
   height="25"
   xml:space="preserve"
   xmlns="http://www.w3.org/2000/svg"
   xmlns:svg="http://www.w3.org/2000/svg"><defs
     id="defs23" /><path
     d="m 7.1633192,22.177527 -2.4503394,-1.278437 4.644993,-1.917658 4.7941422,-1.98158 2.386418,-1.001442 1.193209,-0.490067 0.0426,-0.02131 0.02131,-0.02131 0.04261,-0.02131 c 0.06391,-0.02131 0.106537,-0.06391 0.149152,-0.08522 0.08522,-0.08523 0.149151,-0.170459 0.191765,-0.298302 0.04261,-0.106536 0.04261,-0.234381 0.02131,-0.340917 l -0.02131,-0.04261 -0.02131,-0.0426 -0.02131,-0.04261 -0.02131,-0.06391 -0.191766,-0.617912 -1.470203,-4.5171466 2.556876,1.3210516 1.853736,5.454669 c 0.08523,0.276996 -0.04261,0.553991 -0.298301,0.681834 L 8.015597,22.220147 c -0.1278443,0.04261 -0.2556897,0.08522 -0.3835319,0.08522 C 7.4616063,22.28406 7.3124558,22.262759 7.1633042,22.177526 Z M 4.4146768,20.600788 0.04668014,7.7737914 c -0.127844,-0.404838 0.063924,-0.8309843 0.4474533,-0.9801357 L 5.9914182,4.4498524 C 5.6718079,5.0038425 5.4161204,5.5791398 5.2030478,6.1757436 4.9260521,6.964115 4.798209,7.7950994 4.798209,8.6260844 c 0,0.873599 0.2343798,1.7258896 0.681833,2.4716466 0.2343814,0.383531 0.5326835,0.724447 0.8522916,1.022751 0.3409175,0.298301 0.7244496,0.511374 1.150596,0.681832 0.8096772,0.298303 1.6832762,0.404839 2.5568764,0.298303 0.830985,-0.08522 1.640663,-0.319611 2.407725,-0.681834 1.257131,-0.596605 2.386418,-1.448897 3.323939,-2.4716476 l 1.470204,4.1975386 0.213074,0.617911 0.02131,0.08522 h -0.02131 l -1.19321,0.511377 -2.36511,1.065365 -4.7515294,2.088114 z M 7.8877677,11.822175 C 7.2485481,11.566488 6.7158656,11.119034 6.3536408,10.543737 5.9914182,9.9471324 5.778344,9.2653004 5.7570367,8.5621584 5.735737,7.8377104 5.8209648,7.091955 6.0340327,6.388814 6.2471047,5.664365 6.5454079,4.9825319 6.9289388,4.3433124 l 0.021309,-0.021311 2.3011886,1.1719023 C 9.5071244,5.6430537 9.5923543,5.9626638 9.4645111,6.218351 9.2940522,6.5379602 9.1235924,6.8788778 8.9957492,7.2411022 8.8252903,7.6459404 8.6974471,8.0507794 8.5909099,8.4769244 c -0.063917,0.319611 -0.1278432,0.639221 -0.1491504,0.958829 0,0.06392 -0.021309,0.149152 -0.021309,0.234381 0,0.08522 -0.021309,0.149151 -0.021309,0.23438 v 0.2343806 c 0,0.660525 0.1491515,1.299745 0.4261464,1.896351 -0.3196093,0 -0.6392196,-0.08522 -0.9375217,-0.213075 z M 12.767142,8.9030754 c 0,-0.404838 0.340915,-0.745755 0.745755,-0.745755 0.404838,0 0.745754,0.340917 0.745754,0.745755 0,0.404839 -0.340916,0.745756 -0.745754,0.745756 -0.40484,0 -0.745755,-0.340917 -0.745755,-0.745756 z m -2.322497,-0.958828 c 0,-0.276996 0.213074,-0.490068 0.490068,-0.490068 0.276994,0 0.490067,0.213072 0.490067,0.490068 0,0.276995 -0.213073,0.490067 -0.490067,0.490067 -0.255688,0 -0.490068,-0.213072 -0.490068,-0.490067 z M 11.36086,3.8106296 c 0,-0.6818331 0.553987,-1.2358232 1.235822,-1.2358232 0.681835,0 1.235825,0.5539901 1.235825,1.2358232 0,0.6818344 -0.55399,1.2358244 -1.235825,1.2358244 -0.681835,0 -1.214516,-0.55399 -1.235822,-1.2358244 z"
     fill="#923057"
     id="path449"
     style="stroke-width:0.213073" /></svg>
