<?xml version="1.0" encoding="UTF-8" standalone="no"?>
<svg
   viewBox="0 0 21 25"
   version="1.1"
   id="svg19"
   width="21"
   height="25"
   xml:space="preserve"
   xmlns="http://www.w3.org/2000/svg"
   xmlns:svg="http://www.w3.org/2000/svg"><defs
     id="defs23"><pattern
       id="EMFhbasepattern"
       patternUnits="userSpaceOnUse"
       width="6"
       height="6"
       x="0"
       y="0" /></defs><g
     id="g731"
     transform="matrix(0.16789074,0,0,0.16789074,-146.29033,-62.737255)"><rect
       x="868.33301"
       y="408.33301"
       fill="none"
       width="191.5"
       height="36"
       id="rect711" /><g
       id="g864"
       transform="matrix(3.0182648,0,0,3.0182648,-1156.7698,-880.88564)"><path
         fill="#1565c0"
         d="m 711.994,465 -8,-8.031 V 447 c 0,0 0.172,-6 -3.906,-6 -4.188,0 -4.031,5.688 -4.031,5.688 l -0.038,8.354 -8.025,-1.136 V 444 c 0,0 -0.917,-11.958 12.167,-11.958 12.38,0 11.849,11.849 11.849,11.849 z"
         id="path847" /><path
         fill="#2196f3"
         d="m 672,465 8,-8.031 V 447 c 0,0 -0.172,-6 3.906,-6 4.188,0 4.031,5.688 4.031,5.688 l 0.038,8.354 8.025,6.978 V 444 c 0,0 0.917,-11.958 -12.167,-11.958 -12.38,0 -11.849,11.849 -11.849,11.849 z"
         id="path849" /><circle
         fill="#2196f3"
         cx="683.5"
         cy="422.08301"
         r="6.3330002"
         id="circle851" /><circle
         fill="#1565c0"
         cx="699.5"
         cy="422.08301"
         r="6.3330002"
         id="circle853" /></g></g></svg>
