<?xml version="1.0" encoding="UTF-8" standalone="no"?>
<svg
   viewBox="0 0 21 25"
   version="1.1"
   id="svg19"
   width="21"
   height="25"
   xml:space="preserve"
   xmlns="http://www.w3.org/2000/svg"
   xmlns:svg="http://www.w3.org/2000/svg"><defs
     id="defs23" /><g
     fill="none"
     id="g17"
     transform="matrix(1.0277311,0,0,1.0277311,-54.457232,-0.36729527)"><path
       fill="#ff261f"
       d="m 73.451868,6.5875703 -10.229,-5.97600005 V 12.56357 Z"
       id="path9" /><path
       fill="#ebebeb"
       d="m 63.222868,12.56357 -10.227,-5.9759997 V 18.54057 l 10.227,-5.977 10.229,5.977 V 6.5875703 l -10.229,5.9759997"
       id="path11" /><path
       fill="#ff8a17"
       d="m 52.995868,6.5875703 10.227,5.9759997 V 0.61157025 l -10.227,5.97600005"
       id="path13" /><path
       fill="#bebebe"
       d="m 52.995868,18.54157 10.227,5.975 10.229,-5.975 -10.229,-5.978 -10.227,5.978"
       id="path15" /></g><path
     d="m -33.731087,-26.110798 -2.329434,-1.215357 4.415798,-1.823036 4.55759,-1.883804 2.268667,-0.95203 1.134333,-0.465886 0.04051,-0.02026 0.02026,-0.02026 0.04051,-0.02026 c 0.06077,-0.02026 0.10128,-0.06077 0.141792,-0.08102 0.08102,-0.08102 0.141791,-0.162048 0.182303,-0.283584 0.04051,-0.101279 0.04051,-0.222815 0.02026,-0.324095 l -0.02026,-0.04051 -0.02026,-0.04051 -0.02026,-0.04051 -0.02026,-0.06077 -0.182303,-0.587423 -1.397661,-4.294263 2.430714,1.25587 1.762269,5.185524 c 0.08102,0.263328 -0.04051,0.526655 -0.283583,0.648191 l -11.930758,5.1045 c -0.121536,0.04051 -0.243072,0.08102 -0.364607,0.08102 -0.162048,-0.02026 -0.30384,-0.04051 -0.445632,-0.121536 z m -2.613018,-1.49894 -4.15247,-12.194085 c -0.121536,-0.384863 0.06077,-0.789982 0.425375,-0.931774 l 5.226036,-2.228155 c -0.303839,0.526655 -0.546911,1.073566 -0.74947,1.640732 -0.263328,0.749471 -0.384863,1.539453 -0.384863,2.329435 0,0.830494 0.222815,1.640732 0.64819,2.349691 0.222816,0.364607 0.506399,0.688702 0.810238,0.972286 0.324096,0.283583 0.688703,0.486143 1.093822,0.64819 0.769726,0.283584 1.60022,0.384863 2.430714,0.283584 0.789983,-0.08102 1.559709,-0.30384 2.288923,-0.648191 1.195102,-0.567167 2.268667,-1.377405 3.159929,-2.349691 l 1.397661,3.990423 0.20256,0.587423 0.02026,0.08102 h -0.02026 l -1.134334,0.486143 -2.248411,1.012798 -4.517078,1.985083 z m 59.937371,-2.511739 c -0.405119,-0.405119 -0.465887,-1.215357 -0.445631,-2.066107 0.02026,-0.648191 0.10128,-1.296381 0.162047,-1.863548 0.06077,-0.384863 0.10128,-0.769726 0.182304,-1.154589 -0.10128,0.04051 -0.20256,0.06077 -0.303839,0.08102 -0.405119,0.08102 -0.830494,0.121536 -1.25587,0.121536 0.02026,0.688703 -0.02025,1.823036 -0.02025,2.167387 -0.02026,1.174846 -0.04051,1.964828 -0.20256,2.288923 -0.263327,0.627935 -0.891262,0.871006 -1.80278,0.871006 -0.648191,0 -1.721756,-0.263327 -1.863547,-0.972286 -0.04051,-0.222815 -0.06077,-0.425375 -0.06077,-0.64819 -0.708959,0.931774 -1.458429,1.579964 -2.390203,1.579964 -0.324095,0 -0.708958,-0.08102 -0.85075,-0.465886 -0.182304,-0.486143 -0.141792,-1.640733 -0.10128,-2.471227 0.02026,-0.486143 0.06077,-0.972286 -0.141792,-1.377405 -0.162047,-0.344351 -0.708958,-0.324095 -1.073565,-0.324095 h -0.222816 l -0.162047,4.192982 c 0,0.182304 -0.141792,0.30384 -0.324096,0.324096 -0.202559,0.02026 -0.465887,0.02026 -0.668446,0 -0.182304,0 -0.324095,-0.162048 -0.324095,-0.324096 0,-0.526654 0.06077,-1.377405 0.08102,-2.126875 l 0.162048,-3.747352 0.08102,-2.491482 c -0.10128,0.04051 -0.222816,0.10128 -0.324095,0.162048 -0.324096,0.222815 -0.607679,0.506399 -0.810239,0.85075 v 0.02026 c -0.101279,0.162047 -0.283583,0.222815 -0.445631,0.202559 -0.243071,-0.04051 -0.405119,-0.283583 -0.344351,-0.526655 0,-0.04051 0.02026,-0.06077 0.04051,-0.101279 0.222816,-0.506399 0.546911,-0.931774 0.972286,-1.296381 0.445631,-0.384864 1.012798,-0.607679 1.60022,-0.648191 h 0.02026 c 0.06077,0 0.121536,0 0.182304,0.02026 0.162048,0.04051 0.303839,0.121536 0.384863,0.263327 0.04051,0.06077 0.08102,0.141792 0.10128,0.222816 0.02026,0.10128 0.02026,0.202559 0,0.283583 -0.02026,0.10128 -0.02026,0.20256 -0.02026,0.30384 -0.04051,0.384863 -0.04051,0.769726 -0.06077,1.134333 l -0.04051,0.871006 c -0.02026,0.425375 -0.02026,0.830494 -0.02026,1.255869 0.425375,-0.769726 0.810238,-1.458428 1.134334,-2.066107 0.344351,-0.729214 0.688702,-1.235613 1.053309,-1.924316 0.121536,-0.202559 0.364607,-0.303839 0.587423,-0.202559 0.121536,0.04051 0.243071,0.101279 0.344351,0.162047 0.222816,0.121536 0.30384,0.384863 0.182304,0.607679 -0.20256,0.384863 -0.384863,0.668446 -0.526655,0.911518 -0.567167,0.972286 -1.134333,1.90406 -1.458429,2.531994 0.911518,0.06077 1.316637,0.567167 1.357149,1.417917 0.04051,0.830494 -0.02026,1.073566 0,1.458429 0,0.344351 -0.10128,1.377405 0.162048,1.458429 0.283583,0.06077 0.607678,-0.222816 0.708958,-0.30384 0.243072,-0.202559 0.465887,-0.344351 1.134334,-1.296381 v -0.74947 c -0.02026,-0.972286 -0.04051,-1.80278 0,-2.75481 0.04051,-0.769726 0.64819,-1.033054 1.417916,-1.073566 0.121536,0 0.324095,-0.02026 0.567167,-0.02026 0.74947,0 1.843292,0.162048 1.883804,1.15459 0.64819,0.141792 1.377405,-0.02026 2.106619,-0.344351 0.141792,-0.344352 0.445631,-0.627935 0.789982,-0.749471 0.283584,-0.06077 0.587423,-0.101279 0.871006,-0.101279 0.526655,0 1.05331,0.162047 1.336893,0.54691 0.465887,0.668447 0.30384,2.552251 -0.54691,3.180185 -0.749471,0.567167 -1.25587,0.465887 -1.924316,0.506399 -0.121536,0.688703 -0.263328,1.7015 0.08102,2.086363 0.465887,0.526655 1.519196,0.789983 3.484024,-1.721756 v -5.671667 c 0,-0.141792 0,-1.458429 0.02026,-1.640732 0.02026,-0.708959 0.141792,-1.701501 0.74947,-1.985084 0.263328,-0.121536 0.567167,-0.182304 0.85075,-0.182304 0.607679,0 1.25587,0.243072 1.417917,1.073566 0.162048,0.789982 -0.222815,1.782524 -0.64819,2.572506 -0.344352,0.648191 -0.749471,1.276125 -1.174846,1.863548 -0.02026,0.405119 -0.02026,1.114078 -0.02026,1.276125 0.425375,-0.74947 1.15459,-1.742012 1.863548,-1.762268 1.073566,-0.02026 1.438173,0.546911 1.438173,1.660988 -0.02026,1.134334 -1.114078,2.410459 -1.944572,2.653531 0.648191,0.952029 1.134334,1.823036 1.458429,1.843291 0.384863,0.04051 0.607679,-0.222815 1.357149,-1.276125 0.141792,-0.202559 0.425375,-0.263327 0.627935,-0.121535 l 0.121535,0.121535 c 0.121536,0.162048 0.121536,0.384863 0,0.546911 -0.911518,1.458429 -1.519196,2.228155 -2.167387,2.228155 -0.384863,-0.02026 -0.74947,-0.182303 -1.012798,-0.445631 -0.425375,-0.425375 -1.174845,-1.7015 -1.721756,-2.734554 -0.02026,0.546911 -0.02026,1.924316 0,2.734554 0,0.243072 -0.182303,0.465887 -0.445631,0.465887 h -0.324095 c -0.243072,0 -0.445631,-0.202559 -0.445631,-0.445631 v -1.215357 c -1.033054,1.377405 -2.066107,1.762268 -2.876346,1.762268 -0.567166,-0.10128 -1.114077,-0.283583 -1.559708,-0.648191 z m -4.375286,-5.529875 c 0.02025,1.397661 0,4.233494 0.141791,4.496822 0.182304,0.324095 1.174846,0.364607 1.276125,-0.141792 0.08102,-0.405119 0.10128,-1.964828 0.04051,-3.686584 -0.445631,-0.06077 -0.567166,-0.162047 -0.688702,-0.465887 -0.121536,-0.303839 -0.06077,-0.64819 0.121536,-0.911518 h -0.182304 c -0.546911,0 -0.708958,0.30384 -0.708958,0.708959 z m 11.626918,-0.283584 c -0.769727,0.648191 -1.195102,1.579965 -1.357149,1.924316 0.891262,-0.04051 1.438172,-0.486143 1.964827,-1.276125 0.222816,-0.344351 0.02026,-0.769726 -0.303839,-0.769726 -0.121536,0.02025 -0.222816,0.06077 -0.303839,0.121535 z m -5.50962,-0.283583 c -0.546911,0.10128 -0.668447,1.357149 -0.729214,1.843292 0.405119,0.02026 0.789982,0.04051 1.134333,-0.243072 0.243071,-0.182303 0.364607,-0.668446 0.384863,-0.992541 0.02026,-0.486143 -0.202559,-0.627935 -0.506399,-0.627935 -0.101279,-0.02026 -0.182303,0 -0.283583,0.02026 z m 3.909399,-4.314518 c -0.02026,0.526654 -0.06077,1.134333 -0.02026,2.005339 0.30384,-0.587423 0.567167,-1.195101 0.769727,-1.823036 0.101279,-0.546911 -0.08102,-0.810238 -0.30384,-0.810238 -0.222815,0 -0.445631,0.222815 -0.445631,0.627935 z m 5.30706,10.290025 c 0,-0.364608 0.283584,-0.648191 0.648191,-0.648191 0.364607,0 0.64819,0.283583 0.64819,0.648191 0,0.364607 -0.283583,0.64819 -0.64819,0.64819 -0.344351,0 -0.648191,-0.283583 -0.648191,-0.64819 z m -31.072634,0.08102 c -0.4051191,-0.405119 -0.4861429,-1.215357 -0.445631,-2.066107 0.020256,-0.648191 0.1012798,-1.296381 0.1620476,-1.863548 0.040512,-0.405119 0.1012798,-0.789982 0.1823036,-1.195101 -0.4658869,0.162047 -0.9722858,0.141792 -1.3976609,-0.10128 -0.7697262,0.85075 -1.0127977,1.559709 -1.47868466,2.896602 -0.26332742,0.830494 -0.44563111,1.7015 -0.54691088,2.572506 -0.02025596,0.141792 -0.14179169,0.263327 -0.30383933,0.263327 -0.18230359,0.02026 -0.4051191,0.02026 -0.58742269,0.02026 -0.18230364,0 -0.30383934,-0.141791 -0.30383934,-0.324095 v -0.02026 c 0.020256,-0.324095 0.060768,-0.648191 0.081024,-0.972286 -0.891262,1.134334 -1.4179168,1.255869 -1.8432919,1.255869 -0.6481905,-0.02026 -0.9317738,-0.141791 -1.0735655,-1.134333 -0.1823036,0.425375 -0.5063988,0.769726 -0.9115179,0.972286 -0.1417917,0.06077 -0.3038394,0.08102 -0.486143,0.08102 -0.445631,0 -0.9115179,-0.20256 -1.0938215,-0.627935 -0.040512,-0.10128 -0.081024,-0.222816 -0.1012798,-0.324095 -0.5469108,0.688702 -0.871006,0.74947 -1.1545894,0.871006 -0.3646072,0.141791 -0.7494703,0.202559 -1.1545894,0.202559 -0.7292144,0 -1.458429,-0.263327 -1.458429,-1.215357 v -0.10128 c -0.648191,0.769727 -1.316637,1.276125 -2.167387,1.276125 -0.324095,0 -0.708959,-0.08102 -0.85075,-0.465887 -0.182304,-0.486143 -0.141792,-1.640732 -0.10128,-2.471226 0.02026,-0.486143 0.06077,-0.972286 -0.141792,-1.377405 -0.162047,-0.344351 -0.708958,-0.324095 -1.073565,-0.324095 h -0.222816 l -0.141792,4.213238 c 0,0.182304 -0.141791,0.30384 -0.324095,0.324096 -0.202559,0.02026 -0.445631,0.02026 -0.668446,0 -0.182304,0 -0.324096,-0.162048 -0.324096,-0.324096 0.02026,-0.526655 0.06077,-1.377405 0.08102,-2.106619 l 0.162048,-3.747352 0.08102,-2.491482 c -0.10128,0.04051 -0.222816,0.10128 -0.324096,0.162048 -0.324095,0.222815 -0.607678,0.506398 -0.810238,0.85075 v 0.02026 c -0.10128,0.162047 -0.283583,0.222815 -0.445631,0.202559 -0.243071,-0.04051 -0.405119,-0.283583 -0.344351,-0.526655 0,-0.04051 0.02026,-0.06077 0.04051,-0.101279 0.222815,-0.506399 0.546911,-0.931774 0.972286,-1.296382 0.445631,-0.384863 1.012797,-0.607678 1.60022,-0.64819 h 0.02026 c 0.06077,0 0.121536,0 0.182304,0.02026 0.162047,0.04051 0.303839,0.121536 0.384863,0.263327 0.04051,0.06077 0.08102,0.141792 0.10128,0.222816 0.02026,0.10128 0.02026,0.202559 0,0.283583 -0.02026,0.10128 -0.02026,0.20256 -0.02026,0.303839 -0.04051,0.384864 -0.04051,0.769727 -0.06077,1.134334 l -0.04051,0.871006 c -0.02026,0.425375 -0.02026,0.830494 -0.02026,1.255869 0.425375,-0.769726 0.810238,-1.458429 1.134333,-2.066107 0.344352,-0.729215 0.688703,-1.235613 1.05331,-1.924316 0.121536,-0.202559 0.364607,-0.303839 0.587423,-0.202559 0.121535,0.04051 0.243071,0.101279 0.344351,0.162047 0.222815,0.121536 0.303839,0.384863 0.182304,0.607679 -0.20256,0.384863 -0.384864,0.668446 -0.526655,0.911518 -0.567167,0.972286 -1.134334,1.90406 -1.458429,2.531994 0.911518,0.06077 1.316637,0.567167 1.357149,1.417917 0.04051,0.830494 -0.02026,1.073566 0,1.458429 0,0.344351 -0.10128,1.377405 0.162048,1.458428 0.283583,0.06077 0.587422,-0.222815 0.708958,-0.303839 0.222816,-0.182303 0.425375,-0.324095 1.012798,-1.114077 0.10128,-1.640733 0.3443512,-4.577846 0.5469108,-7.150352 0.060768,-0.668447 -0.020256,-2.086364 1.1545894,-2.450971 0.2430714,-0.08102 0.5063989,-0.121536 0.7494703,-0.141792 0.445631,0 0.9317739,0.20256 1.1343335,0.992542 0.1620476,1.276125 -0.1417917,1.863548 -0.5874227,2.916858 -0.3443512,0.769726 -0.7697263,1.397661 -1.5191966,2.694042 -0.060768,0.688702 -0.081024,1.357149 -0.1823036,2.572506 -0.060768,0.972286 -0.1417917,1.579964 -0.040512,1.944572 0.1012798,0.364607 0.445631,0.303839 0.8304941,0.182303 0.2228155,-0.08102 0.6887025,-0.202559 1.4786847,-1.215357 v -0.182304 c 0.040512,-0.668446 0.081024,-1.417917 0.1823036,-2.207899 0.1620477,-1.397661 0.3038394,-2.126875 1.0330537,-2.592762 0.2633274,-0.162048 0.5671668,-0.263327 0.8710061,-0.263327 0.465887,0 0.8912619,0.263327 1.1140774,0.668446 0.040512,-0.182304 0.060768,-0.344351 0.081024,-0.526655 0.020256,-0.162047 0.1620477,-0.283583 0.3240953,-0.283583 0.1823036,0 0.3443512,0.02026 0.5063989,0.02026 0.1823036,0.02026 0.3038393,0.182303 0.3038393,0.344351 -0.2025595,2.390203 -0.465887,4.841173 -0.5469108,5.813459 -0.020256,0.263328 0.3038393,0.303839 0.445631,0.20256 0.3240953,-0.243072 0.6481906,-0.405119 1.4179169,-1.519197 0.14179165,-1.640732 0.26332738,-3.240953 0.36460715,-4.45631 0.020256,-0.141792 0.14179169,-0.263327 0.30383933,-0.263327 l 0.56716683,0.06077 c 0.14179169,0.02026 0.26332742,0.141792 0.26332742,0.30384 -0.10127978,1.296381 -0.16204764,2.025595 -0.1823036,2.55225 0,0.02026 0.020256,0.02026 0.020256,0 0.36460719,-0.931774 0.76972627,-1.823036 1.25586917,-2.694042 0.040512,-0.06077 0.1215357,-0.10128 0.2025595,-0.06077 l 0.060768,0.06077 c 0.2025596,0.364607 0.5469108,0.648191 0.9722858,0.74947 0.3646072,0.08102 0.7494704,0 1.0533097,-0.222815 0.1417917,-0.324095 0.425375,-0.567167 0.7494703,-0.668447 0.2835834,-0.06077 0.5874227,-0.101279 0.8710061,-0.101279 0.5266548,0 1.0533096,0.162047 1.336893,0.54691 0.4861429,0.668447 0.3038393,2.552251 -0.5469108,3.180185 -0.7494703,0.567167 -1.2558692,0.465887 -1.9243157,0.506399 -0.1215357,0.688703 -0.2633274,1.7015 0.081024,2.086364 0.4253751,0.506398 1.4179169,0.74947 3.1801849,-1.357149 0.1620477,-0.20256 0.4456311,-0.222816 0.6481906,-0.06077 0.040512,0.02026 0.060768,0.06077 0.081024,0.101279 0.020256,0.02026 0.020256,0.02026 0.040512,0 0.081024,0.141792 0.081024,0.324096 -0.020256,0.465887 -1.1951014,1.90406 -2.4104587,2.410459 -3.3219766,2.410459 -0.5469108,-0.06077 -1.0938216,-0.263327 -1.5394526,-0.607679 z m -8.6695487,-5.448851 c -0.2025595,0.567166 -0.3240953,2.045851 -0.3646072,3.078905 -0.020256,0.587422 -0.020256,1.033053 0.040512,1.093821 0.081024,0.08102 0.2025596,0.141792 0.3240953,0.141792 0.2835834,0 0.6684465,-0.222816 1.1140775,-0.891262 0.1620477,-1.478685 0.2228154,-1.924316 0.3240952,-3.362489 -0.2430713,-0.506398 -0.5266547,-0.668446 -0.7697262,-0.668446 -0.2835833,0 -0.5671667,0.283583 -0.6684466,0.607679 z m 10.4115608,-0.607679 c -0.5469108,0.10128 -0.6684465,1.357149 -0.7292144,1.843292 0.4051191,0.02026 0.7899823,0.04051 1.1343335,-0.243072 0.2430715,-0.182303 0.3646072,-0.668446 0.3848632,-0.992541 0.020256,-0.486143 -0.2025596,-0.627935 -0.5063989,-0.627935 -0.1012798,-0.02026 -0.2025596,0 -0.2835834,0.02026 z m -13.8145612,-4.213239 c -0.040512,0.445631 -0.1417917,1.782524 -0.1823036,2.694042 0.4051191,-0.789982 0.7494703,-1.620476 0.9925418,-2.471226 0.1620476,-0.627935 -0.020256,-0.871006 -0.2633274,-0.871006 -0.2430715,0 -0.5063989,0.243071 -0.5469108,0.64819 z m -24.4489379,4.476566 c -0.607679,-0.243071 -1.114078,-0.668446 -1.458429,-1.215357 -0.344351,-0.567167 -0.546911,-1.215357 -0.567167,-1.883804 -0.02025,-0.688702 0.06077,-1.397661 0.263328,-2.066107 0.202559,-0.688703 0.486143,-1.336893 0.85075,-1.944572 l 0.02026,-0.02026 2.187643,1.114078 c 0.243072,0.141791 0.324095,0.445631 0.20256,0.688702 -0.162048,0.303839 -0.324096,0.627935 -0.445631,0.972286 -0.162048,0.384863 -0.283584,0.769726 -0.384864,1.174845 -0.06077,0.30384 -0.121535,0.607679 -0.141791,0.911518 0,0.06077 -0.02026,0.141792 -0.02026,0.222816 0,0.08102 -0.02026,0.141792 -0.02026,0.222815 v 0.222816 c 0,0.627934 0.141792,1.235613 0.405119,1.80278 -0.303839,0 -0.607679,-0.08102 -0.891262,-0.20256 z m 4.638614,-2.775066 c 0,-0.384863 0.324095,-0.708958 0.708958,-0.708958 0.384863,0 0.708958,0.324095 0.708958,0.708958 0,0.384864 -0.324095,0.708959 -0.708958,0.708959 -0.384863,0 -0.708958,-0.324095 -0.708958,-0.708959 z m -2.207899,-0.911517 c 0,-0.263328 0.202559,-0.465887 0.465887,-0.465887 0.263327,0 0.465886,0.202559 0.465886,0.465887 0,0.263327 -0.202559,0.465886 -0.465886,0.465886 -0.243072,0 -0.465887,-0.202559 -0.465887,-0.465886 z m 0.871006,-3.929656 c 0,-0.64819 0.526654,-1.174845 1.174845,-1.174845 0.648191,0 1.174845,0.526655 1.174845,1.174845 0,0.648191 -0.526654,1.174846 -1.174845,1.174846 -0.648191,0 -1.154589,-0.526655 -1.174845,-1.174846 z"
     fill="#923057"
     id="path449"
     style="stroke-width:0.20256" /></svg>
