<?xml version="1.0" encoding="utf-8"?>
<!-- Generator: Adobe Illustrator 16.0.0, SVG Export Plug-In . SVG Version: 6.00 Build 0)  -->
<!DOCTYPE svg PUBLIC "-//W3C//DTD SVG 1.1//EN" "http://www.w3.org/Graphics/SVG/1.1/DTD/svg11.dtd">
<svg version="1.1" id="svg19" xmlns:svg="http://www.w3.org/2000/svg"
	 xmlns="http://www.w3.org/2000/svg" xmlns:xlink="http://www.w3.org/1999/xlink" x="0px" y="0px" width="21px" height="25px"
	 viewBox="0 0 21 25" enable-background="new 0 0 21 25" xml:space="preserve">
<g enable-background="new    ">
	<path d="M0.031,9.045c0.254-0.042,0.587-0.079,1.012-0.079c0.521,0,0.902,0.121,1.145,0.339C2.412,9.5,2.544,9.797,2.544,10.16
		c0,0.37-0.109,0.66-0.315,0.873c-0.278,0.297-0.733,0.448-1.248,0.448c-0.158,0-0.303-0.006-0.424-0.037v1.636H0.031V9.045z
		 M0.558,11.014c0.115,0.031,0.261,0.042,0.436,0.042c0.636,0,1.024-0.309,1.024-0.872c0-0.539-0.381-0.8-0.963-0.8
		c-0.23,0-0.406,0.018-0.497,0.042V11.014z"/>
	<path d="M7.939,11.166H6.352v1.472h1.769v0.442H5.825V8.997H8.03v0.442H6.352v1.29h1.587V11.166z"/>
	<path d="M11.376,13.08V8.997h0.575l1.309,2.066c0.303,0.479,0.539,0.909,0.733,1.327l0.012-0.006
		c-0.049-0.545-0.061-1.042-0.061-1.678V8.997h0.497v4.083h-0.533l-1.297-2.072c-0.284-0.454-0.557-0.921-0.763-1.363L11.83,9.651
		c0.03,0.515,0.043,1.006,0.043,1.684v1.745H11.376z"/>
	<path d="M17.933,13.08V8.997h0.576l1.309,2.066c0.303,0.479,0.539,0.909,0.732,1.327l0.013-0.006
		c-0.049-0.545-0.061-1.042-0.061-1.678V8.997h0.496v4.083h-0.533l-1.296-2.072c-0.285-0.454-0.558-0.921-0.764-1.363l-0.018,0.006
		c0.03,0.515,0.042,1.006,0.042,1.684v1.745H17.933z"/>
</g>
<g>
	<path d="M0.569,15.926c-0.033,0.017-0.1,0.033-0.185,0.033c-0.197,0-0.346-0.125-0.346-0.354c0-0.22,0.148-0.368,0.366-0.368
		c0.087,0,0.143,0.02,0.167,0.031l-0.022,0.074c-0.034-0.018-0.083-0.029-0.142-0.029c-0.164,0-0.273,0.105-0.273,0.289
		c0,0.172,0.099,0.281,0.269,0.281c0.055,0,0.112-0.012,0.148-0.029L0.569,15.926z"/>
	<path d="M2.534,15.591c0,0.241-0.146,0.369-0.326,0.369c-0.185,0-0.315-0.144-0.315-0.355c0-0.223,0.139-0.368,0.326-0.368
		C2.411,15.236,2.534,15.383,2.534,15.591z M1.991,15.602c0,0.15,0.081,0.284,0.223,0.284c0.144,0,0.225-0.132,0.225-0.29
		c0-0.14-0.073-0.285-0.224-0.285C2.065,15.311,1.991,15.449,1.991,15.602z"/>
	<path d="M4.517,15.641c-0.005-0.098-0.012-0.215-0.011-0.303H4.503c-0.024,0.082-0.053,0.17-0.088,0.267l-0.124,0.34H4.223
		L4.109,15.61c-0.033-0.099-0.061-0.188-0.081-0.272H4.026c-0.002,0.088-0.007,0.205-0.013,0.311l-0.019,0.3H3.908l0.049-0.7h0.116
		l0.119,0.338c0.029,0.087,0.053,0.164,0.071,0.236h0.003c0.018-0.07,0.042-0.146,0.074-0.236l0.125-0.338h0.115l0.044,0.7H4.535
		L4.517,15.641z"/>
	<path d="M6.628,15.641c-0.005-0.098-0.012-0.215-0.011-0.303H6.614c-0.023,0.082-0.053,0.17-0.088,0.267l-0.124,0.34H6.334
		L6.22,15.61c-0.033-0.099-0.061-0.188-0.081-0.272H6.137c-0.002,0.088-0.007,0.205-0.013,0.311l-0.019,0.3H6.019l0.049-0.7h0.115
		l0.12,0.338c0.029,0.087,0.053,0.164,0.071,0.236h0.003c0.018-0.07,0.042-0.146,0.074-0.236l0.125-0.338H6.69l0.043,0.7H6.646
		L6.628,15.641z"/>
	<path d="M8.239,15.248v0.415c0,0.156,0.07,0.223,0.164,0.223c0.104,0,0.17-0.068,0.17-0.223v-0.415h0.091v0.408
		c0,0.215-0.113,0.304-0.265,0.304c-0.144,0-0.252-0.082-0.252-0.3v-0.412H8.239z"/>
	<path d="M10.096,15.948v-0.7h0.099l0.225,0.354c0.052,0.083,0.093,0.156,0.126,0.229l0.002-0.001
		c-0.008-0.094-0.011-0.179-0.011-0.288v-0.293h0.085v0.7H10.53l-0.223-0.355c-0.049-0.077-0.095-0.157-0.131-0.233l-0.003,0.001
		c0.005,0.089,0.007,0.173,0.007,0.289v0.299H10.096z"/>
	<path d="M12.146,15.248v0.7h-0.09v-0.7H12.146z"/>
	<path d="M14.067,15.926c-0.033,0.017-0.1,0.033-0.185,0.033c-0.198,0-0.347-0.125-0.347-0.354c0-0.22,0.148-0.368,0.366-0.368
		c0.088,0,0.143,0.02,0.166,0.031l-0.021,0.074c-0.034-0.018-0.083-0.029-0.142-0.029c-0.163,0-0.273,0.105-0.273,0.289
		c0,0.172,0.099,0.281,0.27,0.281c0.056,0,0.111-0.012,0.147-0.029L14.067,15.926z"/>
	<path d="M17.425,15.324h-0.214v-0.076h0.519v0.076h-0.214v0.624h-0.091V15.324z"/>
	<path d="M19.174,15.248v0.7h-0.09v-0.7H19.174z"/>
	<path d="M20.97,15.619h-0.273v0.254H21v0.075h-0.394v-0.7h0.378v0.076h-0.288v0.221h0.273V15.619z"/>
</g>
<polygon id="polygon719_1_" fill="#D18242" points="15.7,15.162 15.332,16.033 16.068,16.033 "/>
</svg>
