<?xml version="1.0" encoding="utf-8"?>
<!-- Generator: Adobe Illustrator 16.0.0, SVG Export Plug-In . SVG Version: 6.00 Build 0)  -->
<!DOCTYPE svg PUBLIC "-//W3C//DTD SVG 1.1//EN" "http://www.w3.org/Graphics/SVG/1.1/DTD/svg11.dtd">
<svg version="1.1" id="Layer_1" xmlns="http://www.w3.org/2000/svg" xmlns:xlink="http://www.w3.org/1999/xlink" x="0px" y="0px"
	 width="205.193px" height="206.693px" viewBox="0 0 205.193 206.693" enable-background="new 0 0 205.193 206.693"
	 xml:space="preserve">
<g>
	<path fill="none" stroke="#5A4D9B" stroke-width="3" stroke-miterlimit="10" d="M117.064,133.739v-3.642
		c0.426-5.103,0.076-7.412,3.073-8.94c9.943-6.104,16.576-17.071,16.576-29.591c0-19.16-15.533-34.698-34.696-34.698
		c-19.161,0-34.695,15.538-34.695,34.698c0,12.52,6.632,23.487,16.573,29.591c3.428,2.568,2.65,3.837,3.074,8.94v3.642H117.064z"/>
	
		<rect x="86.974" y="133.739" fill="none" stroke="#5A4D9B" stroke-width="3" stroke-miterlimit="10" width="30.102" height="12.31"/>
	<line fill="none" stroke="#5A4D9B" stroke-width="3" stroke-miterlimit="10" x1="86.974" y1="138.032" x2="117.076" y2="138.032"/>
	<line fill="none" stroke="#5A4D9B" stroke-width="3" stroke-miterlimit="10" x1="86.974" y1="142.061" x2="117.076" y2="142.061"/>
	<path fill="none" stroke="#5A4D9B" stroke-width="3" stroke-miterlimit="10" d="M93.114,146.049c0.638,4.353,4.378,7.7,8.912,7.7
		c4.532,0,8.274-3.347,8.911-7.7H93.114z"/>
	<path fill="none" stroke="#5A4D9B" stroke-width="3" stroke-miterlimit="10" d="M126.212,95.268l0.22-6.708l-4.067-0.132
		c-0.246-1.392-0.63-2.738-1.141-4.021l3.73-2.042l-3.23-5.888l-3.964,2.176c-0.856-1.006-1.804-1.927-2.833-2.75l2.37-4.003
		l-5.777-3.42l-2.445,4.129c-1.186-0.434-2.423-0.755-3.702-0.962v-4.847h-6.709v4.847c-0.971,0.16-1.917,0.381-2.836,0.667
		l-2.257-4.247l-5.926,3.15l2.191,4.13c-0.955,0.697-1.848,1.477-2.669,2.327l-3.854-2.456l-3.606,5.657l3.631,2.318
		c-0.589,1.242-1.057,2.549-1.388,3.908l-4.127-0.134l-0.219,6.71l3.829,0.122c0.124,1.496,0.406,2.942,0.833,4.331l-3.182,1.744
		l3.227,5.882l2.955-1.62c0.911,1.258,1.956,2.409,3.119,3.427l-1.641,2.774l5.775,3.417l1.558-2.628
		c1.454,0.605,2.989,1.044,4.587,1.304v3.01h6.709v-3.01c1.264-0.202,2.489-0.522,3.666-0.948l1.43,2.688l5.922-3.15l-1.495-2.819
		c1.108-0.887,2.125-1.877,3.029-2.967l2.801,1.786l3.604-5.661l-3.012-1.921c0.523-1.365,0.91-2.802,1.135-4.292L126.212,95.268z"
		/>
	<path fill="none" stroke="#5A4D9B" stroke-width="3" stroke-miterlimit="10" d="M102.017,76.445
		c-8.104,0-14.673,6.568-14.673,14.671s6.57,14.673,14.673,14.673c8.105,0,14.671-6.569,14.671-14.673
		S110.122,76.445,102.017,76.445z M102.017,101.164c-5.549,0-10.047-4.498-10.047-10.047s4.498-10.05,10.047-10.05
		c5.547,0,10.047,4.5,10.047,10.05S107.564,101.164,102.017,101.164z"/>
	<path fill="none" stroke="#5A4D9B" stroke-width="3" stroke-miterlimit="10" d="M131.267,91.598
		c0,15.675-12.707,28.386-28.385,28.386"/>
</g>
</svg>
