<?xml version="1.0" encoding="utf-8"?>
<!-- Generator: Adobe Illustrator 16.0.0, SVG Export Plug-In . SVG Version: 6.00 Build 0)  -->
<!DOCTYPE svg PUBLIC "-//W3C//DTD SVG 1.1//EN" "http://www.w3.org/Graphics/SVG/1.1/DTD/svg11.dtd">
<svg version="1.1" id="Layer_1" xmlns="http://www.w3.org/2000/svg" xmlns:xlink="http://www.w3.org/1999/xlink" x="0px" y="0px"
	 width="205.193px" height="206.693px" viewBox="0 0 205.193 206.693" enable-background="new 0 0 205.193 206.693"
	 xml:space="preserve">
<g>
	
		<rect x="67.906" y="126.586" transform="matrix(0.8453 0.5342 -0.5342 0.8453 84.3971 -24.9709)" fill="#FFFFFF" stroke="#5A4D9B" stroke-width="3" stroke-miterlimit="10" width="34.843" height="13.39"/>
	<path fill="#FFFFFF" stroke="#5A4D9B" stroke-width="3" stroke-miterlimit="10" d="M88.136,84.903c0,0-5.332,0.964-7.264,6.766
		c0,0-2.588,10.095,0.191,20.953l-4.536,7.178l25.057,15.835l4.251-6.729l5.281-0.803c0,0,3.645-0.338,5.696-3.621l11.745-18.585
		l-13.247-8.372"/>
	<g>
		<path fill="#FFFFFF" stroke="#5A4D9B" stroke-width="3" stroke-miterlimit="10" d="M132.134,104.243
			c-0.061-0.046-0.117-0.088-0.185-0.131L88.572,76.699c-0.275-0.174-0.542-0.305-0.805-0.408
			c1.081-5.833-1.392-11.997-6.711-15.359c-5.189-3.279-11.622-2.965-16.395,0.278l11.59,7.325L69.891,78.6L58.3,71.275
			c-0.88,5.703,1.596,11.648,6.786,14.927c5.32,3.362,11.95,2.947,16.753-0.53c0.207,0.192,0.437,0.38,0.712,0.554l43.377,27.412
			c0.04,0.025,0.077,0.039,0.115,0.063c-1.104,5.844,1.366,12.038,6.7,15.409c5.188,3.279,11.623,2.965,16.396-0.278l-11.591-7.325
			l6.362-10.067l11.591,7.325c0.88-5.703-1.6-11.647-6.788-14.926C143.458,100.519,136.923,100.88,132.134,104.243z"/>
	</g>
	<path fill="#FFFFFF" stroke="#5A4D9B" stroke-width="3" stroke-miterlimit="10" d="M104.061,93.061
		c-1.328,2.101-4.103,2.725-6.201,1.399l0,0c-2.1-1.327-2.728-4.102-1.4-6.202l4.495-7.113c1.327-2.1,4.104-2.724,6.204-1.397l0,0
		c2.097,1.326,2.724,4.101,1.397,6.201L104.061,93.061z"/>
	<path fill="#FFFFFF" stroke="#5A4D9B" stroke-width="3" stroke-miterlimit="10" d="M112.505,97.646
		c-1.326,2.098-4.104,2.725-6.202,1.399l0,0c-2.098-1.326-2.725-4.104-1.399-6.202l5.203-8.233c1.327-2.1,4.104-2.724,6.202-1.398
		l0,0c2.098,1.326,2.726,4.102,1.398,6.202L112.505,97.646z"/>
	<path fill="#FFFFFF" stroke="#5A4D9B" stroke-width="3" stroke-miterlimit="10" d="M120.963,101.084
		c-1.326,2.098-4.101,2.725-6.2,1.398l0,0c-2.098-1.326-2.723-4.101-1.397-6.199l3.295-5.214c1.327-2.1,4.101-2.726,6.2-1.4l0,0
		c2.099,1.327,2.725,4.101,1.397,6.201L120.963,101.084z"/>
	<path fill="#FFFFFF" stroke="#5A4D9B" stroke-width="3" stroke-miterlimit="10" d="M128.556,105.897
		c-1.326,2.099-4.103,2.725-6.199,1.4l0,0c-2.099-1.326-2.727-4.104-1.4-6.203l2.245-3.552c1.327-2.1,4.104-2.723,6.203-1.396l0,0
		c2.096,1.325,2.724,4.099,1.397,6.199L128.556,105.897z"/>
	<path fill="#FFFFFF" stroke="#5A4D9B" stroke-width="3" stroke-miterlimit="10" d="M92.941,111.028
		c8.668-10.528,0.782-19.183,0.782-19.183l11.038,6.976c5.686,2.083,9.652-4.194,9.652-4.194L97.075,83.669l-8.939,1.234
		c0,0-5.32,1.441-7.264,6.766c0,0-2.499,9.211,0.191,20.953"/>
</g>
</svg>
