<?xml version="1.0" encoding="UTF-8" standalone="no"?>
<!-- Generator: Adobe Illustrator 16.0.0, SVG Export Plug-In . SVG Version: 6.00 Build 0)  -->

<svg
   version="1.1"
   id="Layer_1"
   x="0px"
   y="0px"
   width="205.193px"
   height="206.693px"
   viewBox="0 0 205.193 206.693"
   enable-background="new 0 0 205.193 206.693"
   xml:space="preserve"
   xmlns="http://www.w3.org/2000/svg"
   xmlns:svg="http://www.w3.org/2000/svg"><defs
   id="defs24" />
<g
   id="g19">
	<g
   id="layer1">
		
			<path
   id="path836"
   fill="#5A4D9B"
   d="    M102.888,47.8c-4.756,0.066-8.316,4.004-7.917,8.692c-2.879,1.373-5.897,3.238-8.12,5.822c-0.458,0.532-0.876,1.099-1.25,1.701    c-19.234,8.09-30.264,28.458-26.585,48.948c-3.84,2.297-5.529,5.782-5.816,9.6c-0.254,3.391,0.566,6.833,1.629,9.835    c-0.19,0.157-0.375,0.325-0.554,0.503c-3.094,3.093-3.101,8.16-0.006,11.257c3.094,3.093,8.162,3.083,11.256-0.011    c0.175-0.173,0.339-0.354,0.494-0.541c3.007,1.064,6.459,1.876,9.857,1.62c1.711-0.13,3.448-0.546,5.019-1.372    c13.624,7.742,30.307,7.749,43.983-0.003c1.604,0.912,3.246,1.292,5.803,1.421c2.613,0.131,6.056-0.602,9.062-1.666    c0.156,0.186,0.32,0.367,0.494,0.541c3.096,3.095,8.164,3.104,11.258,0.011c3.095-3.097,3.088-8.164-0.006-11.257    c-0.179-0.179-0.362-0.347-0.553-0.503c1.063-3.002,1.883-6.444,1.629-9.835c-0.288-3.832-1.979-7.306-5.822-9.603    c3.667-20.437-7.08-40.614-26.543-48.913c-0.433-0.681-0.79-1.166-1.284-1.738c-2.219-2.58-5.396-4.521-8.097-5.81    C111.136,51.409,107.265,47.8,102.888,47.8z M95.915,59.572c1.357,2.461,3.977,4.141,6.973,4.141c2.993,0,5.612-1.677,6.969-4.135    c2.495,1.238,4.97,2.859,6.646,4.806c1.936,2.249,2.887,4.758,1.964,8.2l-2.266,8.455c-0.348,1.305-1.616,2.037-2.922,1.689    c-1.303-0.351-2.036-1.618-1.688-2.923l1.853-6.919c0.109-0.407,0.053-0.841-0.159-1.206l-1.125-1.952    c-0.44-0.762-1.415-1.023-2.177-0.582c-0.76,0.439-1.019,1.412-0.581,2.173l0.796,1.38l-1.682,6.283    c-0.791,2.954,0.985,6.029,3.938,6.82c2.955,0.791,6.029-0.985,6.821-3.938l2.266-8.456c0.485-1.811,0.532-3.524,0.261-5.111    c15.746,8.082,24.654,25.355,21.998,42.954l-4.814-2.775c-2.648-1.53-6.077-0.609-7.606,2.04c-1.53,2.648-0.609,6.077,2.04,7.606    l5.629,3.255l0.414,1.535c0.229,0.848,1.102,1.354,1.949,1.129c0.852-0.227,1.354-1.104,1.125-1.952l-0.584-2.176    c-0.108-0.408-0.373-0.753-0.74-0.963l-6.201-3.584c-1.169-0.676-1.548-2.089-0.874-3.258c0.676-1.169,2.089-1.548,3.258-0.874    l7.583,4.377c3.085,1.781,4.2,4.371,4.411,7.187c0.191,2.559-0.415,5.455-1.303,8.095c-2.697-0.779-5.733-0.109-7.851,2.008    c-2.116,2.117-2.782,5.156-2.002,7.855c-2.642,0.889-5.542,1.5-8.106,1.309c-2.789-0.21-5.405-1.33-7.187-4.414l-4.377-7.586    c-0.674-1.17-0.298-2.589,0.871-3.264c1.169-0.676,2.583-0.291,3.258,0.88l3.581,6.208c0.214,0.365,0.561,0.631,0.97,0.739    l2.179,0.582c0.849,0.224,1.719-0.285,1.943-1.131c0.224-0.849-0.283-1.719-1.131-1.943l-1.526-0.417l-3.258-5.632    c-1.53-2.649-4.953-3.566-7.601-2.037c-2.648,1.53-3.575,4.963-2.045,7.613l4.38,7.584c0.556,0.961,1.195,1.791,1.896,2.503    c-12.034,6.301-26.385,6.292-38.397-0.003c0.7-0.712,1.34-1.539,1.896-2.5l4.38-7.584c1.55-2.687,0.603-6.083-2.045-7.613    c-2.649-1.529-6.072-0.612-7.601,2.037l-3.259,5.632l-1.526,0.417c-0.847,0.224-1.355,1.094-1.131,1.943    c0.226,0.846,1.094,1.355,1.942,1.131l2.18-0.582c0.409-0.108,0.757-0.374,0.97-0.739l3.581-6.208    c0.674-1.17,2.146-1.521,3.257-0.88c1.169,0.675,1.523,2.133,0.871,3.264l-4.377,7.586c-1.704,2.949-4.228,4.191-7.188,4.414    c-2.563,0.191-5.465-0.42-8.107-1.309c0.782-2.7,0.116-5.738-2.002-7.855c-2.116-2.117-5.152-2.787-7.85-2.008    c-0.887-2.64-1.496-5.536-1.302-8.095c0.206-2.748,1.324-5.406,4.411-7.187l7.582-4.377c1.169-0.674,2.583-0.296,3.257,0.874    c0.676,1.169,0.297,2.582-0.873,3.258l-6.202,3.584c-0.365,0.21-0.63,0.556-0.74,0.963l-0.584,2.176    c-0.228,0.849,0.275,1.725,1.125,1.952c0.849,0.225,1.721-0.281,1.949-1.129l0.414-1.535l5.629-3.255    c2.649-1.529,3.568-4.958,2.04-7.606c-1.53-2.649-4.958-3.569-7.607-2.04l-4.818,2.782c-2.665-17.607,6.227-34.876,21.969-42.958    c-0.272,1.585-0.19,3.293,0.295,5.104l2.266,8.459c0.792,2.953,3.872,4.726,6.827,3.935c2.955-0.792,4.728-3.86,3.935-6.814    l-1.678-6.286l0.786-1.373c0.44-0.76,0.184-1.732-0.575-2.173c-0.759-0.441-1.734-0.184-2.176,0.575l-1.125,1.949    c-0.214,0.365-0.273,0.8-0.165,1.209l1.855,6.923c0.35,1.303-0.377,2.575-1.682,2.925c-1.304,0.348-2.575-0.39-2.925-1.695    l-2.267-8.458c-0.922-3.443,0.172-6.121,1.961-8.201C90.936,62.433,93.418,60.812,95.915,59.572z M88.56,89.175    c-2.618,0-4.781,2.166-4.781,4.783v19.088c-0.01,1.428,1.723,2.144,2.727,1.127l5.872-5.896h0.952v1.584    c0,2.618,2.167,4.785,4.784,4.785h15.273l5.875,5.897c1.004,1.016,2.737,0.299,2.726-1.129v-19.102    c0-2.619-2.167-4.769-4.784-4.769h-4.769v-1.586c0-2.617-2.164-4.783-4.781-4.783H88.56z M88.56,92.361h19.093    c0.909,0,1.598,0.689,1.598,1.597v9.542c0,0.907-0.689,1.595-1.598,1.595H91.721c-0.423,0-0.83,0.167-1.128,0.47l-3.631,3.644    v-15.25C86.962,93.05,87.651,92.361,88.56,92.361z M91.74,97.132c-0.879,0-1.592,0.712-1.592,1.591    c0,0.879,0.713,1.593,1.592,1.593s1.591-0.713,1.591-1.593C93.332,97.845,92.619,97.132,91.74,97.132z M98.106,97.132    c-0.879,0-1.591,0.712-1.591,1.591c0,0.879,0.712,1.593,1.591,1.593s1.592-0.713,1.592-1.593    C99.698,97.845,98.985,97.132,98.106,97.132z M104.473,97.132c-0.879,0-1.591,0.712-1.591,1.591c0,0.879,0.712,1.593,1.591,1.593    c0.879,0,1.592-0.713,1.592-1.593C106.065,97.845,105.352,97.132,104.473,97.132z" />
		<path
   fill="#FFFFFF"
   d="M97.952,108.189c2.952,0,4.558,0.004,8.24,0.004c0,0,1.421-0.004,3.182-0.004    c3.014,0,3.056-0.61,3.057-1.126c0-2.544,0.006-6.358,0.006-8.826c3.121,0,3.787-0.082,4.474,0.133    c0.966,0.302,1.991,1.154,1.991,2.704c0,1.384,0.012,2.406,0.012,3.365l-0.012,1.969c0,1.064,0.063,2.499-1.001,4.021    c-1.095,1.563-2.289,1.424-7.009,1.424h-8.32c-3.682,0-6.807-0.021-6.807-3.702L97.952,108.189z"
   id="path10" />
	</g>
	<circle
   fill="#FFFFFF"
   cx="146.351"
   cy="139.032"
   r="5.144"
   id="circle13" />
	<circle
   fill="#FFFFFF"
   cx="59.328"
   cy="139.032"
   r="5.392"
   id="circle15" />
	<circle
   fill="#FFFFFF"
   cx="102.882"
   cy="55.164"
   r="5.369"
   id="circle17" />
</g>
</svg>
